Coordinates
version=1
nRows=5
nColumns=63
inDegrees=yes

Units are S.I. units (second, meters, Newtons, ...)
If the header above contains a line with 'inDegrees', this indicates whether rotational values are in degrees (yes) or radians (no).

endheader
time	pelvis_tilt	pelvis_list	pelvis_rotation	pelvis_tx	pelvis_ty	pelvis_tz	hip_flexion_r	hip_adduction_r	hip_rotation_r	knee_angle_r	knee_angle_r_beta	ankle_angle_r	subtalar_angle_r	mtp_angle_r	hip_flexion_l	hip_adduction_l	hip_rotation_l	knee_angle_l	knee_angle_l_beta	ankle_angle_l	subtalar_angle_l	mtp_angle_l	L5_S1_Flex_Ext	L5_S1_Lat_Bending	L5_S1_axial_rotation	L4_L5_Flex_Ext	L4_L5_Lat_Bending	L4_L5_axial_rotation	L3_L4_Flex_Ext	L3_L4_Lat_Bending	L3_L4_axial_rotation	L2_L3_Flex_Ext	L2_L3_Lat_Bending	L2_L3_axial_rotation	L1_L2_Flex_Ext	L1_L2_Lat_Bending	L1_L2_axial_rotation	L1_T12_Flex_Ext	L1_T12_Lat_Bending	L1_T12_axial_rotation	Abs_r3	Abs_r2	Abs_r1	Abs_t1	Abs_t2	neck_flexion	neck_bending	neck_rotation	arm_flex_r	arm_add_r	arm_rot_r	elbow_flex_r	pro_sup_r	wrist_flex_r	wrist_dev_r	arm_flex_l	arm_add_l	arm_rot_l	elbow_flex_l	pro_sup_l	wrist_flex_l	wrist_dev_l
      0.03333333	      4.54627302	     -2.45527709	    175.73037022	      2.44785141	      0.88775268	      0.60221346	     16.29379104	     -3.06514252	     -6.65208609	     26.51877796	      0.46283999	     21.18688232	     -3.92116288	      0.00000000	      8.67378506	      0.09925212	    -16.34966185	     16.10380522	      0.28106442	     21.91249234	      1.41302438	      0.00000000	     -0.00027999	     -0.27851465	     -0.10029053	     -0.00051996	     -0.37042449	     -0.10655869	     -0.00045999	     -0.67718053	     -0.10655869	     -0.00032000	     -0.67718053	     -0.08775421	     -0.00026000	     -0.56794708	     -0.08148606	     -0.00015998	     -0.43141920	     -0.07521790	     -0.00199991	     -3.15061345	     -0.55778584	      0.00000000	      0.00000000	     -0.00000000	      0.00000000	      0.00000000	     -6.67700211	      0.28306763	    -19.05677613	     27.04769230	     48.68727079	      0.00000000	      5.43431001	     -3.96213996	    -12.79642339	     44.54888007	     18.56557408	     50.76733575	      0.00000000	      5.43431001
      0.06666667	      4.91443649	     -2.51534475	    175.81410521	      2.44815614	      0.88801227	      0.60194238	     16.70628976	     -3.27228730	     -7.88057789	     26.79115800	      0.46759392	     22.64563722	     -1.99503876	      0.00000000	      8.23101021	      2.14324661	     -5.74608385	     13.36755725	      0.23330789	     16.78198415	    -13.93121800	      0.00000000	      0.00075127	     -0.25280685	     -0.12019655	      0.00139518	     -0.33623311	     -0.12770884	      0.00123426	     -0.61467457	     -0.12770884	      0.00085862	     -0.61467457	     -0.10517198	      0.00069763	     -0.51552372	     -0.09765970	      0.00042927	     -0.39159781	     -0.09014741	      0.00536623	     -2.85980163	     -0.66849716	      0.00000000	      0.00000000	     -0.00000000	      0.00000000	      0.00000000	     -6.48713406	     -1.30153230	    -13.89693947	     26.62965660	     50.08394957	      0.00000000	      5.34721153	     -4.30055017	    -12.76782353	     43.40945217	     19.25786386	     50.51970144	      0.00000000	      5.34721153
      0.10000000	      5.24860185	     -2.20105317	    176.21717142	      2.44851610	      0.88815641	      0.60157459	     16.88095627	     -2.97445866	     -8.81404131	     26.73949985	      0.46669231	     23.51226499	     -1.21865161	      0.00000000	      8.37030813	      2.39165665	     -3.15321492	     12.67988594	      0.22130576	     15.10895221	    -17.21945321	      0.00000000	      0.00048472	     -0.21001063	     -0.24778867	      0.00090017	     -0.27931414	     -0.26327546	      0.00079635	     -0.51061984	     -0.26327546	      0.00055399	     -0.51061984	     -0.21681509	      0.00045011	     -0.42825367	     -0.20132829	      0.00027697	     -0.32530646	     -0.18584150	      0.00346231	     -2.37568223	     -1.37812625	      0.00000000	      0.00000000	     -0.00000000	      0.00000000	      0.00000000	     -6.18470401	     -2.15766111	    -11.32809223	     26.46509673	     51.11533571	      0.00000000	      5.26893222	     -4.93667142	    -12.54546020	     40.62991759	     19.83325776	     50.04786114	      0.00000000	      5.26893222
      0.13333333	      5.47598599	     -1.82306796	    176.40098125	      2.44860929	      0.88825723	      0.60146539	     16.90183637	     -2.58793079	     -9.50803637	     26.55830169	      0.46352981	     23.99899172	     -0.60989105	      0.00000000	      8.52458942	      2.25302875	     -2.49571740	     12.43111213	      0.21696384	     14.56635189	    -17.95066446	      0.00000000	      0.00109671	     -0.18114154	     -0.38721689	      0.00203670	     -0.24091824	     -0.41141795	      0.00180178	     -0.44042753	     -0.41141795	      0.00125343	     -0.44042753	     -0.33881478	      0.00101840	     -0.36938382	     -0.31461373	      0.00062666	     -0.28058824	     -0.29041267	      0.00783369	     -2.04910928	     -2.15358420	      0.00000000	      0.00000000	     -0.00000000	      0.00000000	      0.00000000	     -5.84701126	     -2.89367454	     -8.56976688	     26.31728299	     52.12891575	      0.00000000	      5.20250117	     -5.89442731	    -12.08222093	     36.19446359	     20.40589185	     49.43874551	      0.00000000	      5.20250117
      0.16666667	      5.62300558	     -1.63021988	    176.25423840	      2.44859834	      0.88819123	      0.60136259	     16.99334909	     -2.29560304	     -9.51292720	     26.53233343	      0.46307658	     24.12709316	     -0.58097933	      0.00000000	      8.64957527	      2.13838906	     -2.62614906	     12.36603937	      0.21582810	     14.49082894	    -18.06276265	      0.00000000	      0.00168468	     -0.17952663	     -0.46411767	      0.00312863	     -0.23877042	     -0.49312503	      0.00276777	     -0.43650106	     -0.49312503	      0.00192543	     -0.43650106	     -0.40610296	      0.00156440	     -0.36609071	     -0.37709561	      0.00096263	     -0.27808676	     -0.34808825	      0.01203353	     -2.03084119	     -2.58128326	      0.00000000	      0.00000000	     -0.00000000	      0.00000000	      0.00000000	     -5.64022375	     -2.88145305	     -8.56106630	     26.41826100	     52.13129555	      0.00000000	      5.20183069	     -6.16864377	    -12.00571584	     36.17113354	     20.38015623	     49.43902500	      0.00000000	      5.20183069
